# AST/ASF file generated using VICON BodyLanguage
# -----------------------------------------------
:version 1.10
:name VICON
:units
  mass 1.0
  length 0.45
  angle deg
:documentation
   .ast/.asf automatically generated from VICON data using
   VICON BodyBuilder and BodyLanguage model FoxedUp or BRILLIANT.MOD
:root
   order TX TY TZ RX RY RZ
   axis XYZ
   position 0 0 0  
   orientation 0 0 0 
:bonedata
  begin
     id 1 
     name lhipjoint
     direction 0.576517 -0.752066 0.319413 
     length 2.45433 
     axis 0 0 0  XYZ
  end
  begin
     id 2 
     name lfemur
     direction 0.34202 -0.939693 0  
     length 7.54459  
     axis 0 0 20  XYZ
    dof rx ry rz
    limits (-160.0 20.0)
           (-70.0 70.0)
           (-60.0 70.0)
  end
  begin
     id 3 
     name ltibia
     direction 0.34202 -0.939693 0   
     length 7.73986   
     axis 0 0 20   XYZ
    dof rx
    limits (-10.0 170.0)
  end
  begin
     id 4 
     name lfoot
     direction 0.090693 -0.249177 0.964202   
     length 2.28437   
     axis -90 7.62852e-016 20   XYZ
    dof rx rz
    limits (-45.0 90.0)
           (-70.0 20.0)
  end
  begin
     id 5 
     name ltoes
     direction 1.5356e-011 -4.21928e-011 1   
     length 1.14243   
     axis -90 7.62852e-016 20   XYZ
    dof rx
    limits (-90.0 20.0)
  end
  begin
     id 6 
     name rhipjoint
     direction -0.573937 -0.753736 0.320122   
     length 2.44889  
     axis 0 0 0  XYZ 
  end
  begin
     id 7 
     name rfemur
     direction -0.34202 -0.939693 0   
     length 7.50166   
     axis 0 0 -20   XYZ
    dof rx ry rz
    limits (-160.0 20.0)
           (-70.0 70.0)
           (-70.0 60.0)
  end
  begin
     id 8 
     name rtibia
     direction -0.34202 -0.939693 0   
     length 7.54266   
     axis 0 0 -20   XYZ
    dof rx
    limits (-10.0 170.0)
 end
 begin
     id 9 
     name rfoot
     direction -0.114017 -0.31326 0.942798   
     length 2.34212  
     axis -90 -7.62852e-016 -20   XYZ
    dof rx rz
    limits (-45.0 90.0)
           (-20.0 70.0)
  end
  begin
     id 10 
     name rtoes
     direction -1.53557e-011 -4.21867e-011 1   
     length 1.16246   
     axis -90 -7.62852e-016 -20   XYZ
    dof rx
    limits (-90.0 20.0)
  end
  begin
     id 11 
     name lowerback
     direction -0.0228371 0.999155 -0.034167   
     length 2.0537   
     axis 0 0 0   XYZ
    dof rx ry rz
    limits (-20.0 45.0)
           (-30.0 30.0)
           (-30.0 30.0)
  end
  begin
     id 12 
     name upperback
     direction 0.0198981 0.999794 0.00389455   
     length 2.05302   
     axis 0 0 0   XYZ
    dof rx ry rz
    limits (-20.0 45.0)
           (-30.0 30.0)
           (-30.0 30.0)
  end
  begin
     id 13 
     name thorax
     direction 0.0304566 0.99935 0.0192987   
     length 2.05315   
     axis 0 0 0   XYZ
    dof rx ry rz
    limits (-20.0 45.0)
           (-30.0 30.0)
           (-30.0 30.0)
  end
  begin
     id 14 
     name lowerneck
     direction -0.0196762 0.99417 0.106017   
     length 1.82056   
     axis 0 0 0   XYZ
    dof rx ry rz
    limits (-20.0 45.0)
           (-30.0 30.0)
           (-30.0 30.0)
  end
  begin
     id 15 
     name upperneck
     direction 0.00517787 0.9802 -0.197944   
     length 1.83835   
     axis 0 0 0   XYZ
    dof rx ry rz
    limits (-20.0 45.0)
           (-30.0 30.0)
           (-30.0 30.0)
  end
  begin
     id 16
     name head
     direction 0.00211419 0.996945 -0.078081  
     length 1.85629  
     axis 0 0 0   XYZ
    dof rx ry rz
    limits (-20.0 45.0)
           (-30.0 30.0)
           (-30.0 30.0)
  end
  begin
     id 17 
     name lclavicle
     direction 0.930001 0.365811 -0.0357824  
     length 3.81961  
     axis 0 0 0   XYZ
    dof ry rz
    limits (-20.0 10.0)
           (0.0 20.0)
  end
  begin
     id 18 
     name lhumerus
     direction 1 -4.48968e-011 -3.06644e-027   
     length 5.14507   
     axis 180 -30 -90   XYZ
    dof rx ry rz
    limits (-60.0 90.0)
           (-90.0 90.0)
           (-90.0 90.0)
  end
  begin
     id 19
     name lradius
     direction 1 -4.48965e-011 9.06925e-028   
     length 3.50646   
     axis 180 -30 -90   XYZ
    dof rx
    limits (-10.0 170.0)
  end
  begin
     id 20
     name lwrist
     direction 1 -4.48957e-011 1.03922e-027   
     length 1.75323   
     axis -2.56395e-016 90 90   XYZ
    dof ry
    limits (-180.0 0.0)
 end
  begin
     id 21 
     name lhand
     direction 1 -4.48967e-011 2.08017e-027   
     length 0.629969   
     axis -1.32723e-015 90 90   XYZ
    dof rx rz
    limits (-90.0 90.0)
           (-45.0 45.0)
  end
  begin
     id 22 
     name lfingers
     direction 1 -4.49089e-011 4.20095e-027   
     length 0.507897   
     axis -2.6545e-015 90 90   XYZ
    dof rx
    limits (0.0 90.0)
  end
  begin
     id 23
     name lthumb
     direction 0.707107 -6.35001e-011 0.707107   
     length 0.729241   
     axis -90 45 5.05613e-014   XYZ
    dof rx rz
    limits (-45.0 45.0)
           (-45.0 45.0)
  end
  begin
     id 24 
     name rclavicle
     direction -0.881882 0.464123 -0.0829113   
     length 3.47515  
     axis 0 0 0   XYZ 
    dof ry rz
    limits (-10.0 20.0)
           (-20.0 0.0)
  end
  begin
     id 25 
     name rhumerus
     direction -1 -4.48961e-011 -1.55672e-027  
     length 5.232   
     axis 180 30 90   XYZ
    dof rx ry rz
    limits (-90.0 60.0)
           (-90.0 90.0)
           (-90.0 90.0)
  end
  begin
     id 26 
     name rradius
     direction -1 -4.48963e-011 6.18178e-029   
     length 3.65641   
     axis 180 30 90   XYZ
    dof rx
    limits (-10.0 170.0)
  end
  begin
     id 27 
     name rwrist
     direction -1 -4.48982e-011 1.04136e-027   
     length 1.8282   
     axis -2.56395e-016 -90 -90   XYZ
    dof ry
    limits (-180.0 0.0)
  end
  begin
     id 28
     name rhand
     direction -1 -4.48929e-011 2.07378e-027   
     length 0.656807   
     axis -1.32723e-015 -90 -90   XYZ
    dof rx rz
    limits (-90.0 90.0)
           (-45.0 45.0)
  end
  begin
     id 29
     name rfingers
     direction -1 -4.489e-011 4.13816e-027   
     length 0.529535   
     axis -2.6545e-015 -90 -90   XYZ
    dof rx
    limits (0.0 90.0)
  end
  begin
     id 30
     name rthumb
     direction -0.707107 -6.34843e-011 0.707107   
     length 0.760309   
     axis -90 -45 -5.05613e-014   XYZ
    dof rx rz
    limits (-45.0 45.0)
           (-45.0 45.0)
  end
:hierarchy
  begin
    root lhipjoint rhipjoint lowerback
    lhipjoint lfemur
    lfemur ltibia
    ltibia lfoot
    lfoot ltoes
    rhipjoint rfemur
    rfemur rtibia
    rtibia rfoot
    rfoot rtoes
    lowerback upperback
    upperback thorax
    thorax lowerneck lclavicle rclavicle
    lowerneck upperneck
    upperneck head
    lclavicle lhumerus
    lhumerus lradius
    lradius lwrist
    lwrist lhand lthumb
    lhand lfingers
    rclavicle rhumerus
    rhumerus rradius
    rradius rwrist
    rwrist rhand rthumb
    rhand rfingers
  end

#!OML:ASF H:\ManfredETheater\Project 1\Capture day 1\Session 1\subject.ASF
:FULLY-SPECIFIED
:DEGREES
16
root 0.384694 15.2124 -40.1153 3.66303 -15.9359 -2.66033
lowerback 17.7696 -2.05223 2.16694
upperback -0.0163335 -1.82412 4.59509
thorax -9.94047 -0.851923 4.27313
lowerneck -6.16765 -3.38288 12.6459
upperneck 0.763714 -35.5068 -1.99772
head 4.9062 -154.135 197.407
rclavicle -6.50026e-014 3.26007e-014
rhumerus -48.6131 -2.84208 -68.8055
rradius 42.793
rwrist 7.16345
rhand -22.228 -11.4244
rfingers 7.12502
rthumb 4.1886 -41.363
lclavicle -6.50026e-014 3.26007e-014
lhumerus -36.1025 -6.61956 94.5002
lradius 67.8926
lwrist -3.05737
lhand -28.1031 -18.1863
lfingers 7.12502
lthumb -1.48546 11.7882
rfemur -49.8983 -9.47681 34.8039
rtibia 74.5509
rfoot -23.1457 -19.2813
rtoes -6.6044
lfemur -35.8972 8.60334 -11.3073
ltibia 106.185
lfoot -8.44219 -1.1993
ltoes -1.01118
17
root 0.409654 15.2072 -39.8286 3.47839 -16.7244 -2.96137
lowerback 17.863 -1.86389 2.38129
upperback 0.056978 -1.53209 4.57329
thorax -9.93421 -0.725 4.05224
lowerneck -6.0659 -3.38392 12.7094
upperneck 0.799245 -35.5334 -2.00696
head 4.93969 -154.111 197.401
rclavicle -7.83212e-014 4.53229e-014
rhumerus -48.5491 -1.25787 -70.5744
rradius 46.0421
rwrist 5.62232
rhand -22.613 -11.0788
rfingers 7.12502
rthumb 3.81682 -41.0243
lclavicle -7.83212e-014 4.53229e-014
lhumerus -36.8269 -6.90125 94.2157
lradius 67.7943
lwrist -5.12226
lhand -28.0127 -18.7472
lfingers 7.12502
lthumb -1.39815 11.2279
rfemur -48.6577 -9.59052 34.5537
rtibia 75.2112
rfoot -24.2877 -19.0023
rtoes -8.23904
lfemur -38.8806 8.22383 -10.0599
ltibia 106.06
lfoot -9.34607 -0.484244
ltoes -1.92092
18
root 0.438298 15.2064 -39.5413 3.29914 -17.5803 -3.16195
lowerback 17.9296 -1.65268 2.54608
upperback 0.121527 -1.22479 4.51252
thorax -9.92003 -0.58942 3.81104
lowerneck -5.98315 -3.38739 12.7674
upperneck 0.831755 -35.5798 -2.0188
head 4.97589 -154.105 197.405
rclavicle 9.14409e-015 -2.62396e-014
rhumerus -48.6091 0.208256 -72.1636
rradius 49.4584
rwrist 4.43315
rhand -22.8589 -10.55
rfingers 7.12502
rthumb 3.57933 -40.4997
lclavicle 9.14409e-015 -2.62396e-014
lhumerus -37.5426 -7.22176 93.9544
lradius 67.8582
lwrist -6.82398
lhand -27.9572 -19.2254
lfingers 7.12502
lthumb -1.34455 10.7501
rfemur -47.4091 -9.66694 34.151
rtibia 75.7891
rfoot -25.3582 -18.6945
rtoes -9.89969
lfemur -41.6514 7.83025 -8.86915
ltibia 105.377
lfoot -10.1497 0.244339
ltoes -2.63015
19
root 0.470379 15.2109 -39.2536 3.12115 -18.5094 -3.24664
lowerback 17.9658 -1.41973 2.64561
upperback 0.178173 -0.90764 4.40945
thorax -9.89454 -0.447075 3.55645
lowerneck -5.91076 -3.39096 12.8188
upperneck 0.863863 -35.6505 -2.03622
head 5.01889 -154.136 197.42
rclavicle -1.43125e-014 -3.97569e-015
rhumerus -48.7344 1.51546 -73.5764
rradius 52.9487
rwrist 3.64937
rhand -22.9423 -9.79952
rfingers 7.12502
rthumb 3.49881 -39.7505
lclavicle -1.43125e-014 -3.97569e-015
lhumerus -38.2348 -7.55189 93.7168
lradius 68.0523
lwrist -7.96256
lhand -27.9119 -19.5783
lfingers 7.12502
lthumb -1.30078 10.3975
rfemur -46.1578 -9.68775 33.5801
rtibia 76.2802
rfoot -26.3645 -18.3544
rtoes -11.5233
lfemur -44.1721 7.43487 -7.7556
ltibia 104.132
lfoot -10.8358 0.975894
ltoes -3.08736
20
root 0.505395 15.2226 -38.965 2.93199 -19.5068 -3.20161
lowerback 17.9724 -1.16811 2.67108
upperback 0.229151 -0.586929 4.26061
thorax -9.85551 -0.300556 3.29183
lowerneck -5.83902 -3.3909 12.862
upperneck 0.896188 -35.73 -2.05817
head 5.06578 -154.193 197.441
rclavicle 2.26615e-014 -1.66979e-014
rhumerus -48.8736 2.64799 -74.832
rradius 56.4263
rwrist 3.26591
rhand -22.8897 -8.84908
rfingers 7.12502
rthumb 3.54957 -38.7993
lclavicle 2.26615e-014 -1.66979e-014
lhumerus -38.8957 -7.85827 93.4977
lradius 68.3405
lwrist -8.49648
lhand -27.8597 -19.7843
lfingers 7.12502
lthumb -1.25042 10.1918
rfemur -44.8959 -9.67895 32.8316
rtibia 76.6693
rfoot -27.3046 -17.9679
rtoes -13.129
lfemur -46.3868 7.03511 -6.73981
ltibia 102.31
lfoot -11.3938 1.68979
ltoes -3.36376
21
root 0.542683 15.2432 -38.6756 2.72233 -20.5844 -3.02484
lowerback 17.9492 -0.896013 2.61821
upperback 0.279186 -0.261297 4.06546
thorax -9.79809 -0.148999 3.01918
lowerneck -5.76098 -3.38489 12.8987
upperneck 0.927592 -35.808 -2.08399
head 5.12275 -154.275 197.462
rclavicle -4.51241e-014 -7.15625e-015
rhumerus -48.9836 3.61995 -75.9629
rradius 59.8199
rwrist 3.23472
rhand -22.7427 -7.73953
rfingers 7.12502
rthumb 3.69162 -37.6873
lclavicle -4.51241e-014 -7.15625e-015
lhumerus -39.5201 -8.09735 93.2821
lradius 68.6875
lwrist -8.50448
lhand -27.8321 -19.8476
lfingers 7.12502
lthumb -1.22378 10.1287
rfemur -43.6162 -9.63822 31.908
rtibia 76.9428
rfoot -28.1719 -17.5251
rtoes -14.6604
lfemur -48.235 6.63032 -5.82102
ltibia 99.9024
lfoot -11.8318 2.34329
ltoes -3.56263
